<?xml version="1.0" standalone="no"?><!DOCTYPE svg PUBLIC "-//W3C//DTD SVG 1.1//EN" "http://www.w3.org/Graphics/SVG/1.1/DTD/svg11.dtd"><svg t="1779526613459" class="icon" viewBox="0 0 1024 1024" version="1.1" xmlns="http://www.w3.org/2000/svg" p-id="9763" xmlns:xlink="http://www.w3.org/1999/xlink" width="200" height="200"><path d="M811.6 1024H212.5c-16.7 0-30.2-13.5-30.3-30.2V791c0-0.8 0-1.6 0.1-2.7V580.9C64.6 554.1-9 436.9 17.9 319.2 40.7 219.4 129.7 148.8 232 149.3c10 0 19.9 0.7 29.8 2C334.4 13.1 505.2-40.1 643.4 32.5c50.7 26.6 92.2 68.1 118.8 118.8 9.9-1.3 19.8-2 29.8-2 120.9-0.4 219.2 97.4 219.6 218.3 0.1 25.2-4.2 50.3-12.7 74.1-25.2 70.2-84.4 122.8-157.2 139.3v207.4c0.1 1 0.1 1.9 0.1 2.7v202.8c0 16.6-13.5 30.1-30.2 30.1zM242.8 821.2v142.5h538.5V821.2h-87.5v47.1c-0.3 16.7-14.1 30.1-30.8 29.8-16.3-0.3-29.5-13.5-29.8-29.8v-47.1H390.9v47.1c-0.3 16.7-14.1 30.1-30.8 29.8-16.3-0.3-29.5-13.5-29.8-29.8v-47.1h-87.5z m420.6-185.9c16.7 0 30.2 13.5 30.3 30.2v95.4h87.4V555.4c0-15.5 11.8-28.5 27.2-30 87-8.6 150.5-86.1 141.9-173-8-81.3-76.6-143.1-158.3-142.7-13.4 0-26.7 1.7-39.7 5-14.6 3.7-29.7-3.8-35.5-17.7C669.4 83.8 539.3 30.5 426.1 77.9c-53.7 22.5-96.4 65.2-119 119-5.8 13.9-20.9 21.4-35.5 17.7-13-3.3-26.3-5-39.7-5-87.4-0.4-158.6 70.1-159 157.5-0.4 81.7 61.4 150.2 142.7 158.3 15.4 1.5 27.2 14.5 27.2 30v205.5h87.4v-95.4c0.3-16.7 14.1-30.1 30.8-29.8 16.3 0.3 29.5 13.5 29.8 29.8v95.4h90.9v-186c0.3-16.7 14.1-30.1 30.8-29.8 16.3 0.3 29.5 13.5 29.8 29.8v186h90.9v-95.4c0.1-16.7 13.6-30.2 30.2-30.2zM512 898.5c-2 0-4-0.2-5.9-0.6-1.9-0.4-3.8-1-5.7-1.7-1.8-0.7-3.6-1.7-5.2-2.8-1.7-1.1-3.2-2.3-4.6-3.7-5.7-5.7-8.8-13.3-8.9-21.3 0-2 0.2-4 0.6-5.9 0.4-1.9 1-3.8 1.8-5.6 2.3-5.5 6.2-10.3 11.1-13.5 1.6-1.1 3.4-2 5.2-2.8 1.8-0.8 3.7-1.3 5.7-1.7 5.9-1.2 11.9-0.6 17.5 1.7 1.8 0.7 3.6 1.7 5.2 2.8 3.3 2.2 6.2 5 8.4 8.3 1.1 1.6 2 3.4 2.8 5.2 0.8 1.8 1.4 3.7 1.8 5.6 2 9.9-1.2 20.1-8.3 27.2-2.8 2.8-6.2 5-9.8 6.5-3.8 1.5-7.7 2.3-11.7 2.3z m151.4-293.4c-2 0-4-0.2-5.9-0.6-1.9-0.4-3.8-1-5.7-1.7-1.8-0.7-3.6-1.7-5.2-2.8-1.7-1.1-3.2-2.4-4.6-3.8-1.4-1.4-2.7-2.9-3.8-4.6-1.1-1.6-2-3.4-2.8-5.2-0.8-1.8-1.4-3.7-1.8-5.6-0.4-1.9-0.6-3.9-0.6-5.9 0-2 0.2-3.9 0.6-5.9 0.8-3.9 2.4-7.6 4.5-10.9 2.2-3.3 5-6.2 8.4-8.4 1.6-1.1 3.4-2 5.2-2.8 1.8-0.8 3.7-1.3 5.7-1.7 3.9-0.8 7.9-0.8 11.8 0 1.9 0.4 3.8 1 5.7 1.7 1.8 0.8 3.6 1.7 5.2 2.8 1.7 1.1 3.2 2.3 4.6 3.7 1.4 1.4 2.7 2.9 3.8 4.6 1.1 1.6 2 3.4 2.8 5.2 0.8 1.8 1.3 3.7 1.7 5.6 0.8 3.9 0.8 7.9 0 11.8-0.8 3.9-2.3 7.6-4.5 10.8-1.1 1.7-2.3 3.2-3.8 4.6-1.4 1.4-2.9 2.7-4.6 3.8-1.6 1.1-3.4 2-5.2 2.8-3.5 1.7-7.5 2.5-11.5 2.5z m-302.9 0c-2 0-4-0.2-5.9-0.6-1.9-0.4-3.8-1-5.7-1.7-1.8-0.8-3.6-1.7-5.2-2.8-1.7-1.1-3.2-2.4-4.6-3.8-1.4-1.4-2.7-2.9-3.8-4.6-1.1-1.6-2-3.4-2.8-5.2-0.8-1.8-1.4-3.7-1.8-5.6-0.4-1.9-0.6-3.9-0.6-5.9 0-2 0.2-3.9 0.6-5.9 0.4-1.9 1-3.8 1.8-5.6 0.8-1.8 1.7-3.6 2.8-5.2 2.2-3.3 5-6.1 8.4-8.3 1.6-1.1 3.4-2 5.2-2.8 1.8-0.8 3.7-1.3 5.7-1.7 1.9-0.4 3.9-0.6 5.8-0.6 8 0 15.8 3.2 21.5 8.8 1.4 1.4 2.7 2.9 3.8 4.6 2.2 3.3 3.7 7 4.5 10.9 0.8 3.9 0.8 7.9 0 11.8-0.8 3.9-2.3 7.6-4.5 10.8-1.1 1.7-2.3 3.2-3.8 4.6-1.4 1.4-2.9 2.7-4.6 3.8-1.6 1.1-3.4 2-5.2 2.8-1.8 0.7-3.7 1.3-5.7 1.7-1.9 0.3-3.9 0.5-5.9 0.5z m280.3-346.6c-12.2 0-23.3-7.3-28-18.6-23.3-55.7-87.4-81.9-143-58.5-26.4 11.1-47.5 32.1-58.5 58.5-6.5 15.4-24.3 22.7-39.7 16.2-7.4-3.1-13.2-9-16.3-16.3-3.1-7.4-3.1-15.7 0-23 36.3-86.6 135.8-127.4 222.4-91.1 41.2 17.2 73.9 50 91.1 91.1 6.3 15.5-1 33.1-16.5 39.5-3.7 1.5-7.6 2.2-11.5 2.2z" fill="#d81e06" p-id="9764"></path></svg>