<?xml version="1.0" standalone="no"?><!DOCTYPE svg PUBLIC "-//W3C//DTD SVG 1.1//EN" "http://www.w3.org/Graphics/SVG/1.1/DTD/svg11.dtd"><svg t="1779526108857" class="icon" viewBox="0 0 1024 1024" version="1.1" xmlns="http://www.w3.org/2000/svg" p-id="7896" xmlns:xlink="http://www.w3.org/1999/xlink" width="200" height="200"><path d="M512 1.344a510.72 510.72 0 1 0 0 1021.312A510.72 510.72 0 0 0 512 1.28zM329.856 302.336a60.8 60.8 0 1 1 121.664 0 60.8 60.8 0 0 1-121.664 0z m487.104 563.712c-236.736 152.128-517.248-43.328-399.744-205.632 117.44-162.24 262.976-276.032 167.424-460.032C492.8 23.552 212.8 133.056 212.8 133.056S407.616-30.592 668.288 57.856s315.776 349.824 315.776 349.824 69.568 306.24-167.104 458.368z" fill="#2c2c2c" p-id="7897"></path></svg>