<?xml version="1.0" standalone="no"?><!DOCTYPE svg PUBLIC "-//W3C//DTD SVG 1.1//EN" "http://www.w3.org/Graphics/SVG/1.1/DTD/svg11.dtd"><svg t="1779526952502" class="icon" viewBox="0 0 1024 1024" version="1.1" xmlns="http://www.w3.org/2000/svg" p-id="12855" xmlns:xlink="http://www.w3.org/1999/xlink" width="200" height="200"><path d="M349.113379 393.780966c9.110069 0.03531 17.761103 4.096 23.657931 11.087448l145.302069 173.868138 148.40938-174.08 2.153931-2.295173a30.931862 30.931862 0 0 1 42.01931-0.635586l120.267034 108.084966h77.576828v61.793103h-89.405793a30.896552 30.896552 0 0 1-20.656552-7.874207l-105.472-94.878896-151.58731 177.822896a30.931862 30.931862 0 0 1-47.209931-0.211862L348.866207 472.699586l-74.257655 87.922759a30.861241 30.861241 0 0 1-23.587311 11.016827H150.422069v-61.793103h86.298483l88.699586-105.083586 2.365793-2.471724a30.896552 30.896552 0 0 1 21.327448-8.474483z" fill="#1BAFA2" p-id="12856"></path><path d="M901.861517 402.043586a195.689931 195.689931 0 0 0-355.787034-112.534069 30.896552 30.896552 0 0 1-50.493793 0 195.689931 195.689931 0 0 0-355.787035 112.498759c0 70.514759 29.131034 140.888276 75.352276 205.824 40.395034 56.708414 92.795586 107.837793 146.643862 149.292138l23.092966 17.196138 2.471724 1.942069A30.896552 30.896552 0 0 1 351.620414 826.262069l-2.683586-1.694897-12.358621-9.004138c-61.969655-46.009379-124.009931-104.871724-171.784828-171.926068-50.846897-71.397517-86.792828-154.094345-86.792827-241.59338A257.483034 257.483034 0 0 1 335.448276 144.560552a256.706207 256.706207 0 0 1 185.37931 78.88331 257.483034 257.483034 0 0 1 442.862345 178.599724c0 112.075034-58.968276 216.381793-133.543724 299.926069-74.857931 83.897379-168.889379 150.739862-246.642759 188.098207a30.931862 30.931862 0 0 1-26.765241-55.684414c70.62069-33.933241 157.978483-95.902897 227.328-173.585655 69.632-78.035862 117.79531-168.183172 117.830621-258.754207z" fill="#303030" p-id="12857"></path><path d="M283.259586 757.654069a23.375448 23.375448 0 1 1 30.366897-35.557517l49.716965 42.478345a23.375448 23.375448 0 1 1-30.366896 35.557517l-49.716966-42.478345z" fill="#FFFFFF" p-id="12858"></path><path d="M403.456 717.506207a85.168552 85.168552 0 1 1-110.62731 129.518345l-49.716966-42.478345a85.168552 85.168552 0 0 1-9.427862-120.055173l6.002759-6.355862a85.168552 85.168552 0 0 1 114.052413-3.072l49.716966 42.443035zM332.976552 800.061793l3.884138 2.683586c8.192 4.519724 18.290759 3.707586 25.63531-2.012689l3.460414-3.283862a23.375448 23.375448 0 0 0 0.706207-29.519449l-3.319173-3.425103-49.681655-42.478345a23.375448 23.375448 0 0 0-30.366896 35.557517l49.681655 42.478345z" fill="#303030" p-id="12859"></path><path d="M630.925241 862.137379a40.077241 40.077241 0 1 1-80.154482 0 40.077241 40.077241 0 0 1 80.154482 0z" fill="#FFFFFF" p-id="12860"></path><path d="M630.925241 862.137379a40.077241 40.077241 0 1 0-80.154482 0 40.077241 40.077241 0 0 0 80.154482 0z m61.793104 0a101.870345 101.870345 0 1 1-203.74069 0 101.870345 101.870345 0 0 1 203.74069 0z" fill="#303030" p-id="12861"></path></svg>